<svg width="64" height="64" viewBox="0 0 64 64" fill="none" xmlns="http://www.w3.org/2000/svg">
  <rect width="64" height="64" rx="0" fill="none"/>
  <path d="M50.6667 8H13.3333C10.4 8 8 10.4 8 13.3333V50.6667C8 53.6 10.4 56 13.3333 56H50.6667C53.6 56 56 53.6 56 50.6667V13.3333C56 10.4 53.6 8 50.6667 8ZM24 45.3333H18.6667V32H24V45.3333ZM34.6667 45.3333H29.3333V18.6667H34.6667V45.3333ZM45.3333 45.3333H40V40H45.3333V45.3333ZM45.3333 34.6667H40V29.3333H45.3333V34.6667ZM45.3333 24H40V18.6667H45.3333V24Z" fill="url(#paint0_linear)"/>
  <defs>
    <linearGradient id="paint0_linear" x1="8" y1="8" x2="56" y2="56" gradientUnits="userSpaceOnUse">
      <stop stop-color="#7B2CBF"/>
      <stop offset="1" stop-color="#FF5C00"/>
    </linearGradient>
  </defs>
</svg>
