<svg width="64" height="64" viewBox="0 0 64 64" fill="none" xmlns="http://www.w3.org/2000/svg">
  <rect width="64" height="64" rx="0" fill="none"/>
  <path d="M32 8C18.745 8 8 18.745 8 32C8 45.255 18.745 56 32 56C45.255 56 56 45.255 56 32C56 18.745 45.255 8 32 8ZM32 14C35.314 14 38 16.686 38 20C38 23.314 35.314 26 32 26C28.686 26 26 23.314 26 20C26 16.686 28.686 14 32 14ZM48 40C48 40.8 47.2 41.6 46.4 41.6H17.6C16.8 41.6 16 40.8 16 40V37.6C16 36.8 16.8 36 17.6 36H46.4C47.2 36 48 36.8 48 37.6V40ZM48 32C48 32.8 47.2 33.6 46.4 33.6H17.6C16.8 33.6 16 32.8 16 32V29.6C16 28.8 16.8 28 17.6 28H46.4C47.2 28 48 28.8 48 29.6V32ZM48 24C48 24.8 47.2 25.6 46.4 25.6H17.6C16.8 25.6 16 24.8 16 24V21.6C16 20.8 16.8 20 17.6 20H46.4C47.2 20 48 20.8 48 21.6V24Z" fill="url(#paint0_linear)"/>
  <defs>
    <linearGradient id="paint0_linear" x1="8" y1="8" x2="56" y2="56" gradientUnits="userSpaceOnUse">
      <stop stop-color="#7B2CBF"/>
      <stop offset="1" stop-color="#FF5C00"/>
    </linearGradient>
  </defs>
</svg>
